<svg xmlns="http://www.w3.org/2000/svg" xmlns:svg="http://www.w3.org/2000/svg" id="svg2" aria-labelledby="title desc" enable-background="new 0 0 280 32.755" role="img" version="1.1" viewBox="0 0 52.672 52.672" xml:space="preserve"><rect id="backgroundrect" width="195.474" height="34.211" x="0" y="18.461" style="fill:none;stroke:none"/><title id="title" lang="en-GB">BBC micro:bit</title><desc id="desc" lang="en-GB">BBC micro:bit logo</desc><metadata id="metadata37"/><path id="path21" d="m 37.363,29.377 c -1.677,0 -3.035,-1.364 -3.035,-3.042 0,-1.678 1.357,-3.038 3.035,-3.038 1.684,0 3.039,1.36 3.039,3.038 0,1.678 -1.355,3.042 -3.039,3.042 M 15.052,23.3 c -1.677,0 -3.042,1.357 -3.042,3.035 0,1.678 1.363,3.042 3.042,3.042 1.674,0 3.036,-1.364 3.036,-3.042 0,-1.678 -1.363,-3.035 -3.036,-3.035 m -0.003,-5.99 22.576,0 c 4.979,0 9.027,4.047 9.027,9.027 0,4.979 -4.049,9.031 -9.027,9.031 l -22.576,0 c -4.977,0 -9.0299993,-4.053 -9.0299993,-9.031 C 6.0180007,21.357 10.072,17.31 15.049,17.31 m 22.576,24.076 c 8.299,0 15.047,-6.75 15.047,-15.049 0,-8.299 -6.748,-15.051 -15.047,-15.051 l -22.576,0 C 6.7500007,11.286 6.9250488e-7,18.038 6.9250488e-7,26.337 6.9250488e-7,34.636 6.7500007,41.386 15.049,41.386 l 22.576,0" style="fill:#000"/></svg>