<svg xmlns="http://www.w3.org/2000/svg" xmlns:svg="http://www.w3.org/2000/svg" xmlns:xlink="http://www.w3.org/1999/xlink" id="svg2" x="0" y="0" version="1.1" viewBox="0 0 286 176" xml:space="preserve" style="enable-background:new 0 0 286 176"><style type="text/css">.st0{fill:#0082fb;stroke:#cdcdcd;stroke-width:3.333091e-02;stroke-linecap:round;stroke-linejoin:round}.st1{fill:#fff}.st2{fill:#0ff}.st3{fill:#0a3d91}.st4{fill:none;stroke:#fff;stroke-width:5.3}</style><rect id="rect4138" width="286" height="176" x="0" y="0" class="st0"/><image style="overflow:visible;enable-background:new" id="image4156" width="1440" height="496" transform="matrix(0.3665 0 0 0.3665 -73.8575 -2.0237)" xlink:href="99048C5B9AD515D2.png"/><path d="M228.1,65.4l-59.5-10.1c-3.2-0.4-6.1,1.7-6.8,4.8l-9.8,45.8c-0.7,2.9,1,5.9,4,6.6c0.1,0,0.2,0.1,0.3,0.1	l59.5,10.1c3.2,0.4,6.1-1.7,6.8-4.8l9.9-45.8c0.7-2.9-1.1-5.9-4-6.6C228.3,65.5,228.2,65.4,228.1,65.4L228.1,65.4z M164.3,62	c0.5-2.4,2.7-3.9,5.1-3.6l12.6,2.1l8.5,1.4l4.2,0.7l-5.2,3.6l0.9-4.3l-10.3,7.3l1.9-8.8l-20.4,14.3L164.3,62z M168.6,88.7l-0.6,2.9	c-0.2,1.2-1.4,2-2.5,1.8l-2.8-0.5c-1.1-0.2-1.8-1.3-1.6-2.4c0,0,0-0.1,0-0.1l0.6-2.9c0.2-1.2,1.3-1.9,2.5-1.8l2.8,0.5	c1.1,0.2,1.8,1.3,1.6,2.4C168.6,88.6,168.6,88.6,168.6,88.7z M209.5,87.8c-2.1,3.9-6.5,5.9-10.8,5.2l-14.2-2.4	c-4.3-0.7-7.5-4.1-7.9-8.4c-0.6-5.9,3.7-11.1,9.6-11.7c0.8-0.1,1.7-0.1,2.5,0l14.5,2.5C209.5,74.1,213.1,81.3,209.5,87.8L209.5,87.8	z M221.2,97.6l-0.6,2.9c-0.2,1.2-1.4,2-2.6,1.8l-2.8-0.5c-1.1-0.2-1.8-1.3-1.6-2.4c0,0,0-0.1,0-0.1l0.6-2.9c0.2-1.2,1.3-2,2.5-1.8	l2.8,0.5c1.1,0.2,1.8,1.3,1.6,2.4C221.2,97.5,221.2,97.5,221.2,97.6L221.2,97.6z" class="st1"/><path d="M201.6,77.2L188.3,75c-3-0.5-6,1.3-6.9,4.2c-1,2.9,0.5,6,3.4,7c0.3,0.1,0.5,0.2,0.8,0.2l13.8,2.3	c3.3,0.4,6.4-1.9,6.8-5.2c0,0,0-0.1,0-0.1C206.6,80.4,204.5,77.7,201.6,77.2L201.6,77.2z M188.6,80.4c-0.2,1.1-1.2,1.8-2.3,1.7	c-1-0.2-1.7-1.2-1.5-2.2c0,0,0-0.1,0-0.1c0.2-1.1,1.3-1.8,2.4-1.7c1,0.2,1.7,1.2,1.5,2.2C188.6,80.3,188.6,80.3,188.6,80.4z M202.7,82.8c-0.2,1.1-1.2,1.8-2.3,1.7c-1-0.2-1.7-1.2-1.5-2.2c0,0,0-0.1,0-0.1c0.2-1.1,1.3-1.8,2.4-1.7c1,0.2,1.7,1.2,1.5,2.2	C202.7,82.7,202.7,82.7,202.7,82.8L202.7,82.8z" class="st1"/><path d="M144.6,100c0,9.2,3.2,18.2,9.1,25.3l-3.1,2.6c-6.4-7.8-10-17.7-10-27.8H144.6z M231.6,51	c5.9,7.1,9.1,16.1,9.1,25.3h4c0-10.2-3.5-20-10-27.8L231.6,51z M240,47c5.9,7.1,9.1,16.1,9.1,25.3h4c0-10.2-3.5-20-10-27.8L240,47z M134.9,103.7c0,9.2,3.2,18.2,9.1,25.3l-3.1,2.6c-6.4-7.8-10-17.7-10-27.8H134.9z" class="st2"/><path d="M59.2,37.5H65c16.1,0,29.1,13,29.1,29.1V106c0,16.1-13,29.1-29.1,29.1h-5.8c-16.1,0-29.1-13-29.1-29.1V66.6	C30.1,50.5,43.2,37.5,59.2,37.5z" class="st3"/><path d="M45.8,70.5l30.5,30.7L61.6,119V55.4l14.7,17l-30.5,29.9" class="st4"/></svg>