<svg xmlns="http://www.w3.org/2000/svg" width="200" height="200"><rect width="30" height="30" x="5" y="5" fill="#fff" fill-opacity="1" rx="5" transform="translate(0,0)"/><rect width="30" height="30" x="5" y="5" fill="#fff" fill-opacity="1" rx="5" transform="translate(40,0)"/><rect width="30" height="30" x="5" y="5" fill="#000" fill-opacity=".2" rx="5" transform="translate(80,0)"/><rect width="30" height="30" x="5" y="5" fill="#000" fill-opacity=".2" rx="5" transform="translate(120,0)"/><rect width="30" height="30" x="5" y="5" fill="#fff" fill-opacity="1" rx="5" transform="translate(160,0)"/><rect width="30" height="30" x="5" y="5" fill="#fff" fill-opacity="1" rx="5" transform="translate(0,40)"/><rect width="30" height="30" x="5" y="5" fill="#fff" fill-opacity="1" rx="5" transform="translate(40,40)"/><rect width="30" height="30" x="5" y="5" fill="#000" fill-opacity=".2" rx="5" transform="translate(80,40)"/><rect width="30" height="30" x="5" y="5" fill="#fff" fill-opacity="1" rx="5" transform="translate(120,40)"/><rect width="30" height="30" x="5" y="5" fill="#000" fill-opacity=".2" rx="5" transform="translate(160,40)"/><rect width="30" height="30" x="5" y="5" fill="#000" fill-opacity=".2" rx="5" transform="translate(0,80)"/><rect width="30" height="30" x="5" y="5" fill="#000" fill-opacity=".2" rx="5" transform="translate(40,80)"/><rect width="30" height="30" x="5" y="5" fill="#fff" fill-opacity="1" rx="5" transform="translate(80,80)"/><rect width="30" height="30" x="5" y="5" fill="#000" fill-opacity=".2" rx="5" transform="translate(120,80)"/><rect width="30" height="30" x="5" y="5" fill="#000" fill-opacity=".2" rx="5" transform="translate(160,80)"/><rect width="30" height="30" x="5" y="5" fill="#fff" fill-opacity="1" rx="5" transform="translate(0,120)"/><rect width="30" height="30" x="5" y="5" fill="#fff" fill-opacity="1" rx="5" transform="translate(40,120)"/><rect width="30" height="30" x="5" y="5" fill="#000" fill-opacity=".2" rx="5" transform="translate(80,120)"/><rect width="30" height="30" x="5" y="5" fill="#fff" fill-opacity="1" rx="5" transform="translate(120,120)"/><rect width="30" height="30" x="5" y="5" fill="#000" fill-opacity=".2" rx="5" transform="translate(160,120)"/><rect width="30" height="30" x="5" y="5" fill="#fff" fill-opacity="1" rx="5" transform="translate(0,160)"/><rect width="30" height="30" x="5" y="5" fill="#fff" fill-opacity="1" rx="5" transform="translate(40,160)"/><rect width="30" height="30" x="5" y="5" fill="#000" fill-opacity=".2" rx="5" transform="translate(80,160)"/><rect width="30" height="30" x="5" y="5" fill="#000" fill-opacity=".2" rx="5" transform="translate(120,160)"/><rect width="30" height="30" x="5" y="5" fill="#fff" fill-opacity="1" rx="5" transform="translate(160,160)"/></svg>